<svg version="1.2" xmlns="http://www.w3.org/2000/svg" viewBox="0 0 2708 2708" width="2708" height="2708"><defs><filter x="-50%" y="-50%" width="200%" height="200%" id="f1" ><feDropShadow dx="-20.14509274331092" dy="20.860854209820882" stdDeviation="37.083333333333336" flood-color="#000000" flood-opacity=".4"/></filter><linearGradient id="P" gradientUnits="userSpaceOnUse"/><linearGradient id="g1" x2="1" href="#P" gradientTransform="matrix(4062,-2345.197,2345.197,4062,-677,2526.598)"><stop stop-color="#4e4ca2"/><stop offset="1" stop-color="#272b92"/></linearGradient><linearGradient id="g2" x2="1" href="#P" gradientTransform="matrix(-1065.757,-1316.1,303.482,-245.755,1887.182,1780.585)"><stop stop-color="#e3e8ff"/><stop offset="1" stop-color="#a9aed4"/></linearGradient></defs><style>.a{filter:url(#f1);fill:url(#g1)}.b{fill:#fff}.c{fill:#f0f4f5}.d{fill:url(#g2)}</style><path fill-rule="evenodd" class="a" d="m2708 0v2708h-2708v-2708z"/><path class="b" d="m917.8 2282v-9.7h-6.8c-12.8 0-21.3-3.6-27.4-11.8-4-5.3-6-10.4-6.4-16.7h40.6v-9.7h-40.6c0.5-5.2 2.8-10.5 6.5-15.1 6.3-7.7 15.9-11.7 28.6-11.7h5.5v-9.8h-9.6c-24.6 0-43.6 18.5-43.6 42.5 0 10.9 4 20.9 11.6 29.2 8 8.6 18.4 12.8 31.9 12.8zm15.1 0h11.2v-69.2l29 60.9c3 6.1 6.6 9.2 11.2 9.2 6 0 8.7-3.6 8.7-11.4v-74h-11.2v68.6l-28.5-60c-2.9-6.1-7-9.4-11.8-9.4-2.6 0-5.1 1-6.6 2.9-1.5 1.9-2 4.3-2 9.2zm74.2 0h29.7c17.2 0 26.3-7.3 26.3-21.8 0-9.5-4.4-16-13.6-20.3l-22.3-10.3c-6.3-2.9-8.7-6.1-8.7-11.1 0-3.6 1.5-6.9 4.2-8.8 2.6-1.9 5.3-2.5 13.3-2.5h22.7v-9.6h-25.7c-17.2 0-26.2 7.1-26.2 20.7 0 9 4.3 15.1 14 19.7l21.1 10c6.3 3.1 9.5 7.1 9.5 12.3 0 4.2-1.9 7.8-5.4 9.8-2.4 1.5-6.4 2.3-12.5 2.3h-26.4zm68.4 0h11.2v-52.7c0-6.9 0.9-11.4 3.2-15 3.1-5.2 9-8.4 15.5-8.4 6 0 11.3 2.8 14.6 7.8 2.5 3.8 3.1 7.6 3.1 16.7v5.4h-32.1v9.6h32.1v36.6h11.2v-51.4c0-11-1.4-16.9-5.2-22.6-5.2-7.8-14.1-12.4-24.1-12.4-9.2 0-17.3 3.7-22.6 10.3-4.9 5.9-6.9 13.2-6.9 23.9zm110 0h11.2v-39.5h14.6c6.6 0 11.1 1.8 14.4 5.7 3 3.4 3.6 6.4 3.6 15.4v10.1c0 2.6 0.1 4.4 0.5 8.3h11.1c-0.4-3.9-0.4-5.3-0.4-9.1v-10.1c0-10.5-0.9-14.3-4.5-18.9-3.1-4.3-6.6-6.4-13.6-8.1 4.7-2.4 6.5-4.7 10-12.7l10.7-25.6h-11.9l-9.6 23.8c-1.7 4.2-4 7.6-6.4 9.5-1.9 1.5-4.2 2-8.6 2h-9.9v-35.3h-11.2zm73.6 0h11.2v-39.1h37.4v39.1h11.1v-84.4h-11.1v35.7h-37.4v-35.7h-11.2zm74.1-42.3c0 24.3 19.7 43.9 43.8 43.9 23.9 0 43.7-19.8 43.7-43.5 0-24.7-19.3-44.2-43.8-44.2-24.2 0-43.7 19.7-43.7 43.8zm11.7 0c0-18.7 14.3-33.5 32.2-33.5 17.7 0 31.9 15 31.9 33.8 0 18.1-14.6 33.4-32 33.4-17.6 0-32.1-15.2-32.1-33.7zm147.7-42.2h-11.2v52.4c0 7.6-0.8 11.6-3.2 15.3-3.3 5.2-8.5 8.2-14.6 8.2-5.1 0-9.8-2.1-13.1-5.8-3.1-3.5-4.8-8.9-4.8-16.6v-53.5h-11.2v54.9c0 9.8 1.9 15.9 6.8 21.3 5.6 6.5 13.3 9.9 22.1 9.9 9 0 16.5-3.1 21.9-9.5 5.2-6 7.3-12.3 7.3-23.5zm19.7 84.5h11.1v-53.7c0-8.2 0.8-11.9 3-15.5 2.7-4.6 7.8-7.4 13.4-7.4 8.4 0 14.7 6.3 14.7 14.7 0 9.4-6.8 15-18.4 15h-8.1v9.7h11.3c6.9 0 11.9 2.1 14.6 6.3 1.7 2.7 2.4 6.6 2.4 14.6v16.3h11.2v-19.6c0-8.7-0.9-12.8-3.4-16.5-2.4-3.5-5.4-5.6-10.4-7.4 8.3-4.8 12.4-11.1 12.4-19.6 0-13.4-11.6-23.8-26.4-23.8-8.5 0-16.3 3.3-21.1 9.2-4.4 5.3-6.3 12-6.3 21.9zm72.5 0h11.2v-84.4h-11.2zm31.1 0h11.2v-54.4c0-7.5 0.7-11.3 3-14.7 2.8-4.5 7.5-6.8 13.5-6.8 8.7 0 15.2 5.8 15.2 13.6 0 4.5-2 8.7-5.7 11.3-2.8 2.1-6.2 2.8-13.1 2.8h-8.6v8.7h11.4c7.3 0 10.4 0.5 13.7 2.6 4.2 2.7 6.6 7.3 6.6 12.5 0 4.4-1.6 8.2-4.7 10.9-3.3 2.8-6.9 3.8-13.4 3.8h-13.6v9.7h16.2c16.4 0 27.2-9.3 27.2-23.4 0-7.4-3.2-14-8.6-18-2-1.4-3.6-2.3-7-3.5 7.4-3.9 11.3-10.1 11.3-18.3 0-13.2-11.3-22.9-26.7-22.9-8.6 0-16.5 3.3-21.4 9-4.5 5.1-6.5 11.7-6.5 20.7zm110-47.4v9.7h32.6c-0.4 5.5-1.3 9-3.5 13.2-5.3 9.9-15.7 15.8-27.3 15.8-18.5 0-32.6-14.7-32.6-34 0-18.9 14-33.1 32.6-33.1 9.6 0 17.3 3.3 25 10.6l8-7.5c-8.9-8.7-20.6-13.4-33.3-13.4-24.8 0-43.9 19-43.9 43.7 0 24.6 19.5 44 44 44 17.9 0 34.2-10.9 40-27.1 2.2-5.9 2.8-11.4 2.8-21.9zm57.7 47.4h11.2v-52.7c0-6.9 0.8-11.5 3.1-15 3.2-5.2 9-8.4 15.5-8.4 6.1 0 11.3 2.8 14.6 7.8 2.6 3.8 3.2 7.6 3.2 16.7v5.4h-32.1v9.6h32.1v36.6h11.2v-51.5c0-10.9-1.4-16.8-5.2-22.6-5.2-7.7-14.1-12.3-24.2-12.3-9.1 0-17.2 3.7-22.6 10.3-4.8 5.8-6.8 13.2-6.8 23.9z"/><path class="b" d="m679.2 2098h42.3v-105.8c0-11.6 0.8-16.2 3.4-21.1 3.4-6.2 9.8-9.8 16.8-9.8 10.8 0 18.8 8.2 18.8 18.8 0 11.9-8.5 19.1-22.2 19.1h-7.2v33.3h9.8c7.5 0 13.4 2.5 16.8 7.2 2.5 3.6 3.3 8.5 3.3 18.6v39.7h42.3v-48.8c0-21.9-6.2-32-22.7-37.9 13.7-9.5 20.1-21.1 20.1-36.6 0-29.7-25.5-51.6-59.8-51.6-38.4 0-61.7 23.2-61.7 61.1zm257.8 0v-36.1h-17.6c-14.2 0-24.5-2.8-32.5-9.3-7.7-6.2-13.1-15-14.9-24.2h65v-32.5h-65c5.4-21.5 22.9-33.3 48.7-33.3h16.3v-36.1h-27.1c-23 0-42.3 7.4-57.8 22.1-17.8 16.8-27.9 40-27.9 64.3 0 21.1 7.8 41 22.5 57.8 16.5 19.1 36.4 27.3 66 27.3zm22.7 0h53.2c15.5 0 26-1.5 34.8-5.1 17-7 28.1-24.5 28.1-44.7 0-13.6-6.2-24.7-17.8-32.7l-40.2-27.6c-14-9.6-15.2-10.6-15.2-14.8 0-2.8 2.5-5.4 6.7-6.7 4.1-1.2 7.2-1.5 20.9-1.5h36.6v-38.4h-48.8c-37.9 0-59 15.7-59 43.8 0 15.2 7.2 28.6 20.6 38.2l36.4 25.8c12.1 8.5 16.2 12.9 16.2 17 0 3.4-3.8 6.7-9 7.5-4.1 0.8-7.2 0.8-20.6 0.8h-42.9zm242.8 0v-36.1h-17.5c-14.2 0-24.5-2.9-32.5-9.3-7.8-6.2-13.2-15-15-24.3h65v-32.5h-65c5.4-21.4 23-33.3 48.7-33.3h16.3v-36.1h-27.1c-22.9 0-42.3 7.5-57.8 22.2-17.8 16.8-27.8 40-27.8 64.2 0 21.2 7.7 41.1 22.4 57.8 16.5 19.1 36.4 27.4 66.1 27.4zm28.6 0h42.3v-108.6c0-8.6 1-12.9 3.6-17.3 3.6-5.7 10.6-9.1 18.1-9.1 6.7 0 12.6 3.1 16.5 8.6 2.8 4.1 3.9 8.7 3.9 18v12.9h-34.1v34.8h34.1v60.7h42.3v-106.1c0-19.8-3.9-33.5-12.9-45.1-11.6-15.2-29.7-23.7-50.6-23.7-19.6 0-36.6 7.2-48 20.3-10.6 12.4-15.2 26.4-15.2 46.7zm159.2 0h42.3v-105.7c0-11.7 0.8-16.3 3.3-21.2 3.4-6.2 9.8-9.8 16.8-9.8 10.8 0 18.8 8.3 18.8 18.8 0 11.9-8.5 19.1-22.1 19.1h-7.3v33.3h9.8c7.5 0 13.5 2.6 16.8 7.2 2.6 3.6 3.4 8.5 3.4 18.6v39.7h42.3v-48.7c0-22-6.2-32-22.7-38 13.6-9.5 20.1-21.1 20.1-36.6 0-29.7-25.5-51.6-59.9-51.6-38.4 0-61.6 23.2-61.6 61.2zm253.8 0v-38.5h-11.6c-17.8 0-26.5-2.3-36.1-9.3-11.9-8.5-18.6-22.2-18.6-37.4 0-13.7 5.5-26 15.5-34.8 9.3-8.3 20.9-11.9 37.9-11.9h12.9v-39.7h-25c-22.2 0-41.8 7.2-56.5 20.9-18.6 16.8-28.6 40-28.6 65 0 21.9 8 42.3 22.9 58.8 16.8 18.3 36.9 26.9 64 26.9zm24.8 0h42.3v-71h43.9v71h42.3v-171.6h-42.3v64.5h-43.9v-64.5h-42.3zm218 0c35.9-0.3 58.1-10.8 70.2-33.8 12.9 23 37.1 34.3 71.2 33.8v-38.5c-13.2-0.2-20.7-2-28.9-7.2-12.6-8-20.6-23.7-20.6-40.5 0-15.5 6.9-30.2 18.5-38.9 8.3-6.2 15.5-8 31-8v-38.7c-36.6-0.3-59.6 10.5-71.2 33.5-5.2-10.3-9.3-15.2-17.8-21.4-11.9-8.3-25.6-12.4-42.3-12.4-2.6 0-6.2 0-10.1 0.3v38.7c13.9 0.2 23 2.3 29.9 7.4 12.2 8.8 19.4 23.5 19.4 39.8 0 14.9-5.7 27.8-16 37.1-8.5 7.5-16.8 10.1-33.3 10.3z"/><path class="c" d="m702.8 1606.2l167.6 167.9 1135.4-1135.6-167.1-167.5z"/><path class="d" d="m1394.5 1331.4l168.7-167.8 403 402.2 39.6 208.3-207.5-39.7zm-691.7-692.9l167.6-167.5 445 443.2-168.7 167.8z"/></svg>